<mxfile host="app.diagrams.net" agent="Mozilla/5.0 (Windows NT 10.0; Win64; x64) AppleWebKit/537.36 (KHTML, like Gecko) Chrome/135.0.0.0 Safari/537.36" version="26.2.9">
  <diagram name="Page-1" id="ErM3vxIibPdJ4ZElmatj">
    <mxGraphModel dx="1898" dy="958" grid="1" gridSize="10" guides="1" tooltips="1" connect="1" arrows="1" fold="1" page="1" pageScale="1" pageWidth="827" pageHeight="1169" math="0" shadow="0">
      <root>
        <mxCell id="0" />
        <mxCell id="1" parent="0" />
        <mxCell id="-9lf4Jjqv0X1LxCQZ8-h-44" style="edgeStyle=orthogonalEdgeStyle;rounded=0;orthogonalLoop=1;jettySize=auto;html=1;entryX=0;entryY=0.5;entryDx=0;entryDy=0;" parent="1" source="-9lf4Jjqv0X1LxCQZ8-h-1" target="-9lf4Jjqv0X1LxCQZ8-h-2" edge="1">
          <mxGeometry relative="1" as="geometry" />
        </mxCell>
        <mxCell id="-9lf4Jjqv0X1LxCQZ8-h-1" value="Sign Up" style="ellipse;whiteSpace=wrap;html=1;" parent="1" vertex="1">
          <mxGeometry x="40" y="5" width="90" height="50" as="geometry" />
        </mxCell>
        <mxCell id="-9lf4Jjqv0X1LxCQZ8-h-52" style="edgeStyle=orthogonalEdgeStyle;rounded=0;orthogonalLoop=1;jettySize=auto;html=1;entryX=0;entryY=0.25;entryDx=0;entryDy=0;" parent="1" source="-9lf4Jjqv0X1LxCQZ8-h-2" target="-9lf4Jjqv0X1LxCQZ8-h-4" edge="1">
          <mxGeometry relative="1" as="geometry">
            <mxPoint x="400" y="80" as="targetPoint" />
          </mxGeometry>
        </mxCell>
        <mxCell id="-9lf4Jjqv0X1LxCQZ8-h-2" value="Login" style="rounded=0;whiteSpace=wrap;html=1;" parent="1" vertex="1">
          <mxGeometry x="182.5" y="10" width="105" height="40" as="geometry" />
        </mxCell>
        <mxCell id="-9lf4Jjqv0X1LxCQZ8-h-77" style="edgeStyle=orthogonalEdgeStyle;rounded=0;orthogonalLoop=1;jettySize=auto;html=1;entryX=0.25;entryY=0;entryDx=0;entryDy=0;" parent="1" source="-9lf4Jjqv0X1LxCQZ8-h-4" target="-9lf4Jjqv0X1LxCQZ8-h-25" edge="1">
          <mxGeometry relative="1" as="geometry" />
        </mxCell>
        <mxCell id="-9lf4Jjqv0X1LxCQZ8-h-78" style="edgeStyle=orthogonalEdgeStyle;rounded=0;orthogonalLoop=1;jettySize=auto;html=1;entryX=0.75;entryY=0;entryDx=0;entryDy=0;" parent="1" source="-9lf4Jjqv0X1LxCQZ8-h-4" target="-9lf4Jjqv0X1LxCQZ8-h-21" edge="1">
          <mxGeometry relative="1" as="geometry" />
        </mxCell>
        <mxCell id="-9lf4Jjqv0X1LxCQZ8-h-4" value="User" style="rounded=0;whiteSpace=wrap;html=1;" parent="1" vertex="1">
          <mxGeometry x="480" y="40" width="110" height="55" as="geometry" />
        </mxCell>
        <mxCell id="-9lf4Jjqv0X1LxCQZ8-h-5" value="Admin Panel" style="rounded=0;whiteSpace=wrap;html=1;" parent="1" vertex="1">
          <mxGeometry x="67.5" y="150" width="110" height="55" as="geometry" />
        </mxCell>
        <mxCell id="-9lf4Jjqv0X1LxCQZ8-h-123" style="edgeStyle=orthogonalEdgeStyle;rounded=0;orthogonalLoop=1;jettySize=auto;html=1;" parent="1" target="-9lf4Jjqv0X1LxCQZ8-h-6" edge="1">
          <mxGeometry relative="1" as="geometry">
            <mxPoint x="400" y="317.5" as="sourcePoint" />
          </mxGeometry>
        </mxCell>
        <mxCell id="-9lf4Jjqv0X1LxCQZ8-h-6" value="Preparation Videos" style="rounded=0;whiteSpace=wrap;html=1;" parent="1" vertex="1">
          <mxGeometry x="240" y="290" width="110" height="55" as="geometry" />
        </mxCell>
        <mxCell id="-9lf4Jjqv0X1LxCQZ8-h-122" style="edgeStyle=orthogonalEdgeStyle;rounded=0;orthogonalLoop=1;jettySize=auto;html=1;" parent="1" target="-9lf4Jjqv0X1LxCQZ8-h-7" edge="1">
          <mxGeometry relative="1" as="geometry">
            <mxPoint x="400" y="247.5" as="sourcePoint" />
          </mxGeometry>
        </mxCell>
        <mxCell id="-9lf4Jjqv0X1LxCQZ8-h-7" value="Preparation&amp;nbsp;Material" style="rounded=0;whiteSpace=wrap;html=1;" parent="1" vertex="1">
          <mxGeometry x="240" y="220" width="110" height="55" as="geometry" />
        </mxCell>
        <mxCell id="-9lf4Jjqv0X1LxCQZ8-h-121" style="edgeStyle=orthogonalEdgeStyle;rounded=0;orthogonalLoop=1;jettySize=auto;html=1;entryX=1;entryY=0.5;entryDx=0;entryDy=0;" parent="1" source="-9lf4Jjqv0X1LxCQZ8-h-8" target="-9lf4Jjqv0X1LxCQZ8-h-19" edge="1">
          <mxGeometry relative="1" as="geometry">
            <Array as="points">
              <mxPoint x="400" y="177.5" />
              <mxPoint x="400" y="387" />
            </Array>
          </mxGeometry>
        </mxCell>
        <mxCell id="-9lf4Jjqv0X1LxCQZ8-h-131" style="edgeStyle=orthogonalEdgeStyle;rounded=0;orthogonalLoop=1;jettySize=auto;html=1;entryX=0;entryY=0.75;entryDx=0;entryDy=0;" parent="1" source="-9lf4Jjqv0X1LxCQZ8-h-8" edge="1">
          <mxGeometry relative="1" as="geometry">
            <mxPoint x="795" y="730" as="targetPoint" />
            <Array as="points">
              <mxPoint x="220" y="177" />
              <mxPoint x="220" y="550" />
              <mxPoint x="573" y="550" />
              <mxPoint x="573" y="730" />
            </Array>
          </mxGeometry>
        </mxCell>
        <mxCell id="-9lf4Jjqv0X1LxCQZ8-h-8" value="Preparation&amp;nbsp;&amp;amp; Practice" style="rounded=0;whiteSpace=wrap;html=1;" parent="1" vertex="1">
          <mxGeometry x="240" y="150" width="110" height="55" as="geometry" />
        </mxCell>
        <mxCell id="-9lf4Jjqv0X1LxCQZ8-h-9" value="Manage Report" style="rounded=0;whiteSpace=wrap;html=1;" parent="1" vertex="1">
          <mxGeometry x="67.5" y="430" width="110" height="55" as="geometry" />
        </mxCell>
        <mxCell id="-9lf4Jjqv0X1LxCQZ8-h-11" value="Mock Test Management" style="rounded=0;whiteSpace=wrap;html=1;" parent="1" vertex="1">
          <mxGeometry x="67.5" y="360" width="110" height="55" as="geometry" />
        </mxCell>
        <mxCell id="-9lf4Jjqv0X1LxCQZ8-h-12" value="Content Management" style="rounded=0;whiteSpace=wrap;html=1;" parent="1" vertex="1">
          <mxGeometry x="67.5" y="290" width="110" height="55" as="geometry" />
        </mxCell>
        <mxCell id="-9lf4Jjqv0X1LxCQZ8-h-13" value="Profile Management&amp;nbsp;" style="rounded=0;whiteSpace=wrap;html=1;" parent="1" vertex="1">
          <mxGeometry x="67.5" y="220" width="110" height="55" as="geometry" />
        </mxCell>
        <mxCell id="-9lf4Jjqv0X1LxCQZ8-h-114" style="edgeStyle=orthogonalEdgeStyle;rounded=0;orthogonalLoop=1;jettySize=auto;html=1;" parent="1" target="-9lf4Jjqv0X1LxCQZ8-h-15" edge="1">
          <mxGeometry relative="1" as="geometry">
            <mxPoint x="680" y="327.5" as="sourcePoint" />
          </mxGeometry>
        </mxCell>
        <mxCell id="-9lf4Jjqv0X1LxCQZ8-h-15" value="Post/Repost" style="rounded=0;whiteSpace=wrap;html=1;" parent="1" vertex="1">
          <mxGeometry x="510" y="300" width="110" height="55" as="geometry" />
        </mxCell>
        <mxCell id="-9lf4Jjqv0X1LxCQZ8-h-107" style="edgeStyle=orthogonalEdgeStyle;rounded=0;orthogonalLoop=1;jettySize=auto;html=1;entryX=1;entryY=0.75;entryDx=0;entryDy=0;" parent="1" edge="1">
          <mxGeometry relative="1" as="geometry">
            <mxPoint x="620" y="179.99941176470585" as="sourcePoint" />
            <mxPoint x="620" y="403.72" as="targetPoint" />
            <Array as="points">
              <mxPoint x="680" y="180" />
              <mxPoint x="680" y="404" />
            </Array>
          </mxGeometry>
        </mxCell>
        <mxCell id="-9lf4Jjqv0X1LxCQZ8-h-132" style="edgeStyle=orthogonalEdgeStyle;rounded=0;orthogonalLoop=1;jettySize=auto;html=1;entryX=0;entryY=0.5;entryDx=0;entryDy=0;" parent="1" source="-9lf4Jjqv0X1LxCQZ8-h-16" edge="1">
          <mxGeometry relative="1" as="geometry">
            <mxPoint x="795" y="710" as="targetPoint" />
            <Array as="points">
              <mxPoint x="480" y="187" />
              <mxPoint x="480" y="520" />
              <mxPoint x="720" y="520" />
              <mxPoint x="720" y="710" />
            </Array>
          </mxGeometry>
        </mxCell>
        <mxCell id="-9lf4Jjqv0X1LxCQZ8-h-16" value="Community" style="rounded=0;whiteSpace=wrap;html=1;" parent="1" vertex="1">
          <mxGeometry x="510" y="160" width="110" height="55" as="geometry" />
        </mxCell>
        <mxCell id="-9lf4Jjqv0X1LxCQZ8-h-113" style="edgeStyle=orthogonalEdgeStyle;rounded=0;orthogonalLoop=1;jettySize=auto;html=1;" parent="1" target="-9lf4Jjqv0X1LxCQZ8-h-17" edge="1">
          <mxGeometry relative="1" as="geometry">
            <mxPoint x="680" y="257.5" as="sourcePoint" />
          </mxGeometry>
        </mxCell>
        <mxCell id="-9lf4Jjqv0X1LxCQZ8-h-17" value="Create/Join" style="rounded=0;whiteSpace=wrap;html=1;" parent="1" vertex="1">
          <mxGeometry x="510" y="230" width="110" height="55" as="geometry" />
        </mxCell>
        <mxCell id="-9lf4Jjqv0X1LxCQZ8-h-18" value="Share/Comment/Like" style="rounded=0;whiteSpace=wrap;html=1;" parent="1" vertex="1">
          <mxGeometry x="510" y="370" width="110" height="55" as="geometry" />
        </mxCell>
        <mxCell id="-9lf4Jjqv0X1LxCQZ8-h-19" value="Practice Exercise" style="rounded=0;whiteSpace=wrap;html=1;" parent="1" vertex="1">
          <mxGeometry x="240" y="360" width="110" height="55" as="geometry" />
        </mxCell>
        <mxCell id="-9lf4Jjqv0X1LxCQZ8-h-135" style="edgeStyle=orthogonalEdgeStyle;rounded=0;orthogonalLoop=1;jettySize=auto;html=1;" parent="1" source="-9lf4Jjqv0X1LxCQZ8-h-21" target="-9lf4Jjqv0X1LxCQZ8-h-138" edge="1">
          <mxGeometry relative="1" as="geometry">
            <mxPoint x="915" y="730" as="targetPoint" />
            <Array as="points">
              <mxPoint x="1310" y="178" />
              <mxPoint x="1310" y="730" />
            </Array>
          </mxGeometry>
        </mxCell>
        <mxCell id="-9lf4Jjqv0X1LxCQZ8-h-21" value="feedback" style="rounded=0;whiteSpace=wrap;html=1;" parent="1" vertex="1">
          <mxGeometry x="1360" y="150" width="110" height="55" as="geometry" />
        </mxCell>
        <mxCell id="-9lf4Jjqv0X1LxCQZ8-h-22" value="History" style="rounded=0;whiteSpace=wrap;html=1;direction=south;" parent="1" vertex="1">
          <mxGeometry x="1100" y="370" width="110" height="55" as="geometry" />
        </mxCell>
        <mxCell id="-9lf4Jjqv0X1LxCQZ8-h-120" style="edgeStyle=orthogonalEdgeStyle;rounded=0;orthogonalLoop=1;jettySize=auto;html=1;" parent="1" target="-9lf4Jjqv0X1LxCQZ8-h-23" edge="1">
          <mxGeometry relative="1" as="geometry">
            <mxPoint x="1060" y="325" as="sourcePoint" />
          </mxGeometry>
        </mxCell>
        <mxCell id="-9lf4Jjqv0X1LxCQZ8-h-23" value="Progress Graph" style="rounded=0;whiteSpace=wrap;html=1;" parent="1" vertex="1">
          <mxGeometry x="1100" y="297.5" width="110" height="55" as="geometry" />
        </mxCell>
        <mxCell id="-9lf4Jjqv0X1LxCQZ8-h-119" style="edgeStyle=orthogonalEdgeStyle;rounded=0;orthogonalLoop=1;jettySize=auto;html=1;" parent="1" target="-9lf4Jjqv0X1LxCQZ8-h-24" edge="1">
          <mxGeometry relative="1" as="geometry">
            <mxPoint x="1060" y="255" as="sourcePoint" />
          </mxGeometry>
        </mxCell>
        <mxCell id="-9lf4Jjqv0X1LxCQZ8-h-24" value="Report" style="rounded=0;whiteSpace=wrap;html=1;" parent="1" vertex="1">
          <mxGeometry x="1100" y="227.5" width="110" height="55" as="geometry" />
        </mxCell>
        <mxCell id="-9lf4Jjqv0X1LxCQZ8-h-109" style="edgeStyle=orthogonalEdgeStyle;rounded=0;orthogonalLoop=1;jettySize=auto;html=1;entryX=0.5;entryY=1;entryDx=0;entryDy=0;" parent="1" source="-9lf4Jjqv0X1LxCQZ8-h-25" target="-9lf4Jjqv0X1LxCQZ8-h-22" edge="1">
          <mxGeometry relative="1" as="geometry">
            <Array as="points">
              <mxPoint x="1060" y="187.5" />
              <mxPoint x="1060" y="398" />
            </Array>
          </mxGeometry>
        </mxCell>
        <mxCell id="-9lf4Jjqv0X1LxCQZ8-h-134" style="edgeStyle=orthogonalEdgeStyle;rounded=0;orthogonalLoop=1;jettySize=auto;html=1;" parent="1" source="-9lf4Jjqv0X1LxCQZ8-h-25" target="-9lf4Jjqv0X1LxCQZ8-h-138" edge="1">
          <mxGeometry relative="1" as="geometry">
            <mxPoint x="920" y="720" as="targetPoint" />
            <Array as="points">
              <mxPoint x="1250" y="188" />
              <mxPoint x="1250" y="720" />
            </Array>
          </mxGeometry>
        </mxCell>
        <mxCell id="-9lf4Jjqv0X1LxCQZ8-h-25" value="Evaluation" style="rounded=0;whiteSpace=wrap;html=1;" parent="1" vertex="1">
          <mxGeometry x="1100" y="160" width="110" height="55" as="geometry" />
        </mxCell>
        <mxCell id="-9lf4Jjqv0X1LxCQZ8-h-26" value="Speaking" style="rounded=0;whiteSpace=wrap;html=1;" parent="1" vertex="1">
          <mxGeometry x="800" y="440" width="110" height="55" as="geometry" />
        </mxCell>
        <mxCell id="-9lf4Jjqv0X1LxCQZ8-h-127" style="edgeStyle=orthogonalEdgeStyle;rounded=0;orthogonalLoop=1;jettySize=auto;html=1;" parent="1" target="-9lf4Jjqv0X1LxCQZ8-h-27" edge="1">
          <mxGeometry relative="1" as="geometry">
            <mxPoint x="760" y="397.5" as="sourcePoint" />
          </mxGeometry>
        </mxCell>
        <mxCell id="-9lf4Jjqv0X1LxCQZ8-h-27" value="Listening" style="rounded=0;whiteSpace=wrap;html=1;" parent="1" vertex="1">
          <mxGeometry x="800" y="370" width="110" height="55" as="geometry" />
        </mxCell>
        <mxCell id="-9lf4Jjqv0X1LxCQZ8-h-126" style="edgeStyle=orthogonalEdgeStyle;rounded=0;orthogonalLoop=1;jettySize=auto;html=1;" parent="1" target="-9lf4Jjqv0X1LxCQZ8-h-28" edge="1">
          <mxGeometry relative="1" as="geometry">
            <mxPoint x="760" y="325" as="sourcePoint" />
          </mxGeometry>
        </mxCell>
        <mxCell id="-9lf4Jjqv0X1LxCQZ8-h-28" value="Reading" style="rounded=0;whiteSpace=wrap;html=1;" parent="1" vertex="1">
          <mxGeometry x="800" y="297.5" width="110" height="55" as="geometry" />
        </mxCell>
        <mxCell id="-9lf4Jjqv0X1LxCQZ8-h-124" style="edgeStyle=orthogonalEdgeStyle;rounded=0;orthogonalLoop=1;jettySize=auto;html=1;" parent="1" target="-9lf4Jjqv0X1LxCQZ8-h-29" edge="1">
          <mxGeometry relative="1" as="geometry">
            <mxPoint x="760" y="257.5" as="sourcePoint" />
          </mxGeometry>
        </mxCell>
        <mxCell id="-9lf4Jjqv0X1LxCQZ8-h-29" value="Writing" style="rounded=0;whiteSpace=wrap;html=1;" parent="1" vertex="1">
          <mxGeometry x="800" y="230" width="110" height="55" as="geometry" />
        </mxCell>
        <mxCell id="-9lf4Jjqv0X1LxCQZ8-h-108" style="edgeStyle=orthogonalEdgeStyle;rounded=0;orthogonalLoop=1;jettySize=auto;html=1;entryX=0;entryY=0.5;entryDx=0;entryDy=0;" parent="1" source="-9lf4Jjqv0X1LxCQZ8-h-30" target="-9lf4Jjqv0X1LxCQZ8-h-26" edge="1">
          <mxGeometry relative="1" as="geometry">
            <Array as="points">
              <mxPoint x="760" y="188" />
              <mxPoint x="760" y="468" />
            </Array>
          </mxGeometry>
        </mxCell>
        <mxCell id="-9lf4Jjqv0X1LxCQZ8-h-133" style="edgeStyle=orthogonalEdgeStyle;rounded=0;orthogonalLoop=1;jettySize=auto;html=1;entryX=0.855;entryY=0;entryDx=0;entryDy=4.35;entryPerimeter=0;" parent="1" source="-9lf4Jjqv0X1LxCQZ8-h-30" target="-9lf4Jjqv0X1LxCQZ8-h-138" edge="1">
          <mxGeometry relative="1" as="geometry">
            <mxPoint x="915" y="690" as="targetPoint" />
            <Array as="points">
              <mxPoint x="940" y="188" />
              <mxPoint x="940" y="443" />
              <mxPoint x="935" y="443" />
              <mxPoint x="935" y="630" />
              <mxPoint x="886" y="630" />
            </Array>
          </mxGeometry>
        </mxCell>
        <mxCell id="-9lf4Jjqv0X1LxCQZ8-h-30" value="Mock test" style="rounded=0;whiteSpace=wrap;html=1;" parent="1" vertex="1">
          <mxGeometry x="800" y="160" width="110" height="55" as="geometry" />
        </mxCell>
        <mxCell id="-9lf4Jjqv0X1LxCQZ8-h-83" style="edgeStyle=orthogonalEdgeStyle;rounded=0;orthogonalLoop=1;jettySize=auto;html=1;" parent="1" source="-9lf4Jjqv0X1LxCQZ8-h-32" target="-9lf4Jjqv0X1LxCQZ8-h-35" edge="1">
          <mxGeometry relative="1" as="geometry" />
        </mxCell>
        <mxCell id="-9lf4Jjqv0X1LxCQZ8-h-32" value="Django&lt;br&gt;(Backend)" style="rounded=0;whiteSpace=wrap;html=1;" parent="1" vertex="1">
          <mxGeometry x="190" y="560" width="110" height="55" as="geometry" />
        </mxCell>
        <mxCell id="-9lf4Jjqv0X1LxCQZ8-h-33" value="Android Application" style="rounded=0;whiteSpace=wrap;html=1;" parent="1" vertex="1">
          <mxGeometry x="1360" y="680" width="110" height="55" as="geometry" />
        </mxCell>
        <mxCell id="-9lf4Jjqv0X1LxCQZ8-h-35" value="Web Application&lt;br&gt;(Only Admin)" style="rounded=0;whiteSpace=wrap;html=1;" parent="1" vertex="1">
          <mxGeometry x="195" y="650" width="100" height="50" as="geometry" />
        </mxCell>
        <mxCell id="-9lf4Jjqv0X1LxCQZ8-h-59" value="" style="endArrow=classic;html=1;rounded=0;" parent="1" edge="1">
          <mxGeometry width="50" height="50" relative="1" as="geometry">
            <mxPoint x="17.5" y="250" as="sourcePoint" />
            <mxPoint x="67.5" y="250" as="targetPoint" />
          </mxGeometry>
        </mxCell>
        <mxCell id="-9lf4Jjqv0X1LxCQZ8-h-60" value="" style="endArrow=classic;html=1;rounded=0;" parent="1" edge="1">
          <mxGeometry width="50" height="50" relative="1" as="geometry">
            <mxPoint x="17.5" y="314.55" as="sourcePoint" />
            <mxPoint x="67.5" y="315" as="targetPoint" />
          </mxGeometry>
        </mxCell>
        <mxCell id="-9lf4Jjqv0X1LxCQZ8-h-61" value="" style="endArrow=classic;html=1;rounded=0;" parent="1" edge="1">
          <mxGeometry width="50" height="50" relative="1" as="geometry">
            <mxPoint x="17.5" y="385" as="sourcePoint" />
            <mxPoint x="67.5" y="385" as="targetPoint" />
          </mxGeometry>
        </mxCell>
        <mxCell id="-9lf4Jjqv0X1LxCQZ8-h-64" value="" style="endArrow=none;html=1;rounded=0;" parent="1" edge="1">
          <mxGeometry width="50" height="50" relative="1" as="geometry">
            <mxPoint x="17.5" y="460" as="sourcePoint" />
            <mxPoint x="17.5" y="170" as="targetPoint" />
          </mxGeometry>
        </mxCell>
        <mxCell id="-9lf4Jjqv0X1LxCQZ8-h-65" value="" style="endArrow=classic;html=1;rounded=0;entryX=-0.007;entryY=0.364;entryDx=0;entryDy=0;entryPerimeter=0;" parent="1" edge="1">
          <mxGeometry width="50" height="50" relative="1" as="geometry">
            <mxPoint x="17.5" y="170" as="sourcePoint" />
            <mxPoint x="66.73000000000002" y="170.01999999999998" as="targetPoint" />
          </mxGeometry>
        </mxCell>
        <mxCell id="-9lf4Jjqv0X1LxCQZ8-h-66" value="" style="endArrow=classic;html=1;rounded=0;" parent="1" edge="1">
          <mxGeometry width="50" height="50" relative="1" as="geometry">
            <mxPoint x="17.5" y="460" as="sourcePoint" />
            <mxPoint x="67.5" y="460" as="targetPoint" />
          </mxGeometry>
        </mxCell>
        <mxCell id="-9lf4Jjqv0X1LxCQZ8-h-72" value="" style="curved=1;endArrow=classic;html=1;rounded=0;exitX=0.5;exitY=1;exitDx=0;exitDy=0;entryX=0.615;entryY=-0.106;entryDx=0;entryDy=0;entryPerimeter=0;" parent="1" source="-9lf4Jjqv0X1LxCQZ8-h-2" target="-9lf4Jjqv0X1LxCQZ8-h-5" edge="1">
          <mxGeometry width="50" height="50" relative="1" as="geometry">
            <mxPoint x="210" y="75" as="sourcePoint" />
            <mxPoint x="160" y="125" as="targetPoint" />
            <Array as="points">
              <mxPoint x="160" y="75" />
              <mxPoint x="210" y="125" />
            </Array>
          </mxGeometry>
        </mxCell>
        <mxCell id="-9lf4Jjqv0X1LxCQZ8-h-74" style="edgeStyle=orthogonalEdgeStyle;rounded=0;orthogonalLoop=1;jettySize=auto;html=1;entryX=0.585;entryY=0.139;entryDx=0;entryDy=0;entryPerimeter=0;" parent="1" source="-9lf4Jjqv0X1LxCQZ8-h-4" target="-9lf4Jjqv0X1LxCQZ8-h-8" edge="1">
          <mxGeometry relative="1" as="geometry" />
        </mxCell>
        <mxCell id="-9lf4Jjqv0X1LxCQZ8-h-75" style="edgeStyle=orthogonalEdgeStyle;rounded=0;orthogonalLoop=1;jettySize=auto;html=1;entryX=0.662;entryY=-0.03;entryDx=0;entryDy=0;entryPerimeter=0;" parent="1" source="-9lf4Jjqv0X1LxCQZ8-h-4" target="-9lf4Jjqv0X1LxCQZ8-h-16" edge="1">
          <mxGeometry relative="1" as="geometry" />
        </mxCell>
        <mxCell id="-9lf4Jjqv0X1LxCQZ8-h-76" style="edgeStyle=orthogonalEdgeStyle;rounded=0;orthogonalLoop=1;jettySize=auto;html=1;entryX=0.408;entryY=-0.06;entryDx=0;entryDy=0;entryPerimeter=0;" parent="1" source="-9lf4Jjqv0X1LxCQZ8-h-4" target="-9lf4Jjqv0X1LxCQZ8-h-30" edge="1">
          <mxGeometry relative="1" as="geometry" />
        </mxCell>
        <mxCell id="-9lf4Jjqv0X1LxCQZ8-h-82" style="edgeStyle=orthogonalEdgeStyle;rounded=0;orthogonalLoop=1;jettySize=auto;html=1;entryX=0;entryY=0;entryDx=0;entryDy=0;" parent="1" source="-9lf4Jjqv0X1LxCQZ8-h-5" target="-9lf4Jjqv0X1LxCQZ8-h-32" edge="1">
          <mxGeometry relative="1" as="geometry">
            <mxPoint x="198" y="520" as="targetPoint" />
          </mxGeometry>
        </mxCell>
        <mxCell id="-9lf4Jjqv0X1LxCQZ8-h-140" style="edgeStyle=orthogonalEdgeStyle;rounded=0;orthogonalLoop=1;jettySize=auto;html=1;entryX=0.5;entryY=1;entryDx=0;entryDy=0;" parent="1" source="-9lf4Jjqv0X1LxCQZ8-h-138" target="-9lf4Jjqv0X1LxCQZ8-h-33" edge="1">
          <mxGeometry relative="1" as="geometry">
            <Array as="points">
              <mxPoint x="850" y="820" />
              <mxPoint x="1415" y="820" />
            </Array>
          </mxGeometry>
        </mxCell>
        <mxCell id="-9lf4Jjqv0X1LxCQZ8-h-138" value="Database&lt;div&gt;(Firebase/SQL)&lt;/div&gt;" style="shape=cylinder3;whiteSpace=wrap;html=1;boundedLbl=1;backgroundOutline=1;size=15;" parent="1" vertex="1">
          <mxGeometry x="800" y="670" width="100" height="110" as="geometry" />
        </mxCell>
        <mxCell id="-9lf4Jjqv0X1LxCQZ8-h-139" style="edgeStyle=orthogonalEdgeStyle;rounded=0;orthogonalLoop=1;jettySize=auto;html=1;entryX=0;entryY=1;entryDx=0;entryDy=-15;entryPerimeter=0;" parent="1" source="-9lf4Jjqv0X1LxCQZ8-h-32" target="-9lf4Jjqv0X1LxCQZ8-h-138" edge="1">
          <mxGeometry relative="1" as="geometry" />
        </mxCell>
      </root>
    </mxGraphModel>
  </diagram>
</mxfile>
